<svg xmlns="http://www.w3.org/2000/svg" width="200" height="200" viewBox="0 0 24 24">
  <path fill-rule="evenodd" clip-rule="evenodd" d="M2.272 6.365C2 6.9 2 7.6 2 9V15C2 16.4 2 17.1 2.272 17.635C2.5119 18.1053 2.89451 18.4875 3.365 18.727C3.9 19 4.6 19 6 19H18C19.4 19 20.1 19 20.635 18.727C21.1051 18.4874 21.4874 18.1051 21.727 17.635C22 17.1 22 16.4 22 15V9C22 7.6 22 6.9 21.727 6.365C21.4875 5.89451 21.1053 5.51189 20.635 5.272C20.1 5 19.4 5 18 5H6C4.6 5 3.9 5 3.365 5.272C2.89435 5.51173 2.51173 5.89435 2.272 6.365ZM4.647 7H19.353C19.4604 6.99987 19.5649 7.0343 19.6512 7.09819C19.7375 7.16209 19.8009 7.25206 19.8321 7.35479C19.8632 7.45753 19.8605 7.56757 19.8243 7.66864C19.7881 7.76971 19.7203 7.85644 19.631 7.916L12.556 12.648C12.3915 12.7581 12.198 12.8168 12 12.8168C11.802 12.8168 11.6085 12.7581 11.444 12.648L4.369 7.916C4.27968 7.85644 4.21189 7.76971 4.17568 7.66864C4.13947 7.56757 4.13676 7.45753 4.16794 7.35479C4.19912 7.25206 4.26253 7.16209 4.34881 7.09819C4.43509 7.0343 4.53964 6.99987 4.647 7Z"/>
</svg>